<?xml version="1.0" standalone="no"?>
<!DOCTYPE svg PUBLIC "-//W3C//DTD SVG 1.1//EN" "http://www.w3.org/Graphics/SVG/1.1/DTD/svg11.dtd" >
<svg xmlns="http://www.w3.org/2000/svg" xmlns:xlink="http://www.w3.org/1999/xlink" version="1.1">
<metadata></metadata>
<defs>
<font id="rf_dewi_expandedblack" horiz-adv-x="1710" >
<font-face units-per-em="2048" ascent="1638" descent="-410" />
<missing-glyph horiz-adv-x="602" />
<glyph horiz-adv-x="0" />
<glyph unicode="&#xd;" horiz-adv-x="681" />
<glyph unicode=" "  horiz-adv-x="602" />
<glyph unicode="&#x09;" horiz-adv-x="602" />
<glyph unicode="&#xa0;" horiz-adv-x="602" />
<glyph unicode="!" horiz-adv-x="770" d="M164 0v393h442v-393h-442zM176 1434h418l-41 -910h-336z" />
<glyph unicode="&#x22;" horiz-adv-x="1075" d="M127 1434h344l-31 -574h-282zM604 1434h344l-30 -574h-283z" />
<glyph unicode="#" horiz-adv-x="1542" d="M33 350v238h284l33 260h-250v237h281l43 324h315l-43 -324h246l43 324h315l-43 -324h252v-237h-282l-33 -260h250v-238h-281l-47 -354h-315l47 354h-246l-47 -354h-315l47 354h-254zM633 588h246l32 260h-245z" />
<glyph unicode="$" horiz-adv-x="1697" d="M57 498l385 12q8 -78 85 -141.5t233 -79.5v266l-232 57q-213 53 -307 151.5t-94 246.5q0 207 177 311t456 115v172h186v-178q266 -25 432 -148t185 -326l-387 -22q-6 59 -62.5 111.5t-167.5 72.5v-229l221 -53q231 -55 344 -148.5t113 -261.5q0 -213 -180 -324.5 t-498 -124.5v-174h-186v174q-672 33 -703 521zM539 1040q0 -33 46 -54t140 -44l35 -8v192q-221 -8 -221 -86zM946 285q129 8 197.5 35.5t68.5 66.5q0 59 -215 111l-51 12v-225z" />
<glyph unicode="%" horiz-adv-x="2355" d="M63 1071q0 170 136.5 272.5t364 102.5t363.5 -102.5t136 -272.5t-136 -271.5t-363.5 -101.5t-364 101.5t-136.5 271.5zM346 1071q0 -74 61.5 -115t155.5 -41t154.5 41t60.5 115t-61.5 116t-153.5 42q-94 0 -155.5 -42t-61.5 -116zM360 0l1377 1434h258l-1377 -1434h-258z M1292 360q0 170 136.5 272.5t363.5 102.5t363.5 -102.5t136.5 -272.5t-136.5 -271t-363.5 -101t-363.5 101t-136.5 271zM1575 360.5q0 -73.5 61.5 -114.5t155.5 -41t154.5 41t60.5 114.5t-61.5 115.5t-153.5 42q-94 0 -155.5 -42t-61.5 -115.5z" />
<glyph unicode="&#x26;" horiz-adv-x="1859" d="M76 358q0 76 28.5 135.5t94 110.5t128 86t173.5 86l24 10l-26 25q-106 96 -157.5 169t-51.5 159q0 143 146.5 231t400.5 88t396 -91t142 -263q0 -106 -66.5 -183t-228.5 -155l-57 -27l278 -247q55 78 84 192h312q-61 -231 -178 -385l337 -299h-456l-111 100 q-217 -125 -532 -125q-346 0 -513 104.5t-167 278.5zM475 389q0 -51 72.5 -87t230.5 -36q160 0 279 41l-324 291l-98 -47q-160 -76 -160 -162zM655 1104q0 -14 7.5 -28.5t29 -37t36.5 -37t56 -51.5l31 -26l49 22q162 74 162 139q0 45 -53 71t-137 26t-132.5 -21.5 t-48.5 -56.5z" />
<glyph unicode="'" horiz-adv-x="598" d="M127 1434h344l-31 -574h-282z" />
<glyph unicode="(" horiz-adv-x="909" d="M143 575.5q0 333.5 121 567t291 364.5h342q-180 -162 -280.5 -400.5t-100.5 -531t100.5 -531.5t280.5 -400h-342q-170 131 -291 364.5t-121 567z" />
<glyph unicode=")" horiz-adv-x="909" d="M12 -356q180 162 280.5 400.5t100.5 531t-100 531.5t-281 400h342q170 -131 291 -364.5t121 -567t-121 -567t-291 -364.5h-342z" />
<glyph unicode="*" horiz-adv-x="909" d="M39 934l121 67l170 56l-170 55l-121 68l100 174l121 -70l129 -119l-35 174v140h201v-140l-35 -174l129 119l121 70l100 -174l-120 -68l-170 -55l170 -56l120 -67l-100 -176l-121 71l-129 117l35 -172v-139h-201v139l35 172l-129 -117l-121 -71z" />
<glyph unicode="+" horiz-adv-x="1204" d="M111 535v266h352v286h278v-286h353v-266h-353v-287h-278v287h-352z" />
<glyph unicode="," horiz-adv-x="729" d="M143 -299v692h443v-246l-262 -446h-181z" />
<glyph unicode="-" horiz-adv-x="1001" d="M111 455v315h780v-315h-780z" />
<glyph unicode="." horiz-adv-x="729" d="M143 0v393h443v-393h-443z" />
<glyph unicode="/" horiz-adv-x="1073" d="M29 -135l616 1646h365l-617 -1646h-364z" />
<glyph unicode="0" horiz-adv-x="1798" d="M106 717q0 344 216.5 542.5t577 198.5t576.5 -198.5t216 -542.5t-216 -543t-576.5 -199t-577 199t-216.5 543zM518 716.5q0 -192.5 104.5 -298t276.5 -105.5t276.5 105.5t104.5 298t-104.5 298t-276.5 105.5t-276.5 -105.5t-104.5 -298z" />
<glyph unicode="1" horiz-adv-x="1181" d="M96 795v389l543 250h332v-1434h-412v1008z" />
<glyph unicode="2" horiz-adv-x="1560" d="M25 0v309l780 441q139 78 188 119.5t49 105.5q0 145 -245 145q-281 0 -322 -213l-401 25q14 137 75.5 239.5t157.5 165t217 92t264 29.5q186 0 332 -46t240 -151.5t94 -259.5q0 -127 -85 -229t-325 -237l-346 -197h809v-338h-1482z" />
<glyph unicode="3" horiz-adv-x="1636" d="M43 436l401 21q53 -143 349 -144q166 0 263 39t97 115q0 70 -89 113t-265 43q-127 0 -299 -29v270l424 232h-779v338h1362v-301l-467 -238q524 -53 525 -428q0 -133 -61.5 -230.5t-172 -153.5t-244 -82t-294.5 -26q-313 0 -515 117t-235 344z" />
<glyph unicode="4" horiz-adv-x="1753" d="M39 283v311l698 840h668v-813h301v-338h-301v-283h-412v283h-954zM483 621h510v610z" />
<glyph unicode="5" horiz-adv-x="1650" d="M47 406l414 22q66 -115 338 -115q170 0 267 49.5t97 131t-99 131t-259 49.5q-231 0 -344 -94l-365 32l80 822h334h948v-338h-983l-29 -271q177 156 488 156q287 0 464 -129t177 -360q0 -252 -210 -384.5t-552 -132.5q-303 0 -512 109t-254 322z" />
<glyph unicode="6" horiz-adv-x="1744" d="M106 709q0 377 217.5 563t594.5 186q295 0 474 -104.5t210 -313.5l-400 -20q-18 41 -95 71.5t-189 30.5q-168 0 -274.5 -82t-123.5 -245q158 157 496 157q287 0 470 -127t183 -350q0 -236 -203.5 -368t-552.5 -132q-807 0 -807 734zM565 475q0 -76 93.5 -120t251 -44 t252.5 44t95 120t-94 119t-254 43q-158 0 -251 -43t-93 -119z" />
<glyph unicode="7" horiz-adv-x="1587" d="M61 1096v338h1473v-283q-578 -553 -723 -1151h-446q168 586 716 1096h-1020z" />
<glyph unicode="8" horiz-adv-x="1736" d="M82 389q0 274 422 365q-369 82 -369 323q0 127 105.5 216t266.5 127t361.5 38t361.5 -38t266.5 -127t105.5 -216q0 -119 -94.5 -200.5t-268.5 -122.5q416 -94 416 -365q0 -139 -115 -235.5t-287 -137.5t-385 -41t-385 41t-286.5 137.5t-114.5 235.5zM481 440.5 q0 -69.5 107.5 -105.5t279.5 -36q170 0 278.5 36t108.5 105.5t-108.5 105.5t-278.5 36q-172 0 -279.5 -36t-107.5 -105.5zM535 1018q0 -51 89 -84t244.5 -33t244.5 33t89 84t-89 84t-244.5 33t-244.5 -33t-89 -84z" />
<glyph unicode="9" horiz-adv-x="1746" d="M76 965q0 229 205.5 361t545.5 132q406 0 609.5 -180t203.5 -553q0 -750 -809 -750q-297 0 -476 103.5t-210 312.5l400 21q47 -100 286 -101q371 0 396 336q-152 -154 -498 -153q-285 0 -469 125.5t-184 345.5zM489 964.5q0 -73.5 94.5 -114.5t254 -41t251 41t91.5 114.5 t-92.5 115.5t-249.5 42q-160 0 -254.5 -42t-94.5 -115.5z" />
<glyph unicode=":" horiz-adv-x="729" d="M143 0v393h443v-393h-443zM143 655v394h443v-394h-443z" />
<glyph unicode=";" horiz-adv-x="729" d="M143 -299v692h443v-246l-262 -446h-181zM143 655v394h443v-394h-443z" />
<glyph unicode="&#x3c;" horiz-adv-x="1173" d="M106 504v325l928 330v-319l-633 -168l633 -152v-319z" />
<glyph unicode="=" horiz-adv-x="1212" d="M115 326v266h983v-266h-983zM115 711v266h983v-266h-983z" />
<glyph unicode="&#x3e;" horiz-adv-x="1173" d="M139 201v319l633 152l-633 168v319l928 -330v-325z" />
<glyph unicode="?" horiz-adv-x="1476" d="M33 954q29 254 223.5 379t497.5 125q283 0 470 -102.5t187 -302.5q0 -121 -78 -205t-241 -156q-121 -53 -162 -81.5t-41 -65.5v-10h-387v26q0 111 49 178.5t188 116.5q70 25 98.5 36t79 35.5t71 47t20.5 49.5q0 49 -75 80t-179 31q-137 0 -225.5 -53.5t-110.5 -147.5z M473 0v393h445v-393h-445z" />
<glyph unicode="@" horiz-adv-x="2050" d="M98 541q0 354 262.5 572t665.5 218q426 0 676 -210t250 -552q0 -219 -107.5 -333.5t-308.5 -114.5q-240 0 -324 164q-102 -186 -331 -187q-170 0 -287 120t-117 320.5t117 319.5t291 119q197 0 293 -139v120h297v-503q0 -68 28.5 -99.5t100.5 -31.5q184 0 184 237 q0 274 -202 449.5t-560 175.5q-328 0 -546 -181.5t-218 -463.5q0 -309 211 -478t578 -169q276 0 465 100l90 -121q-231 -125 -555 -125q-442 0 -697.5 206t-255.5 587zM772 539q0 -94 55.5 -151.5t147.5 -57.5t147.5 57t55.5 152q0 92 -55.5 149t-147.5 57t-147.5 -57 t-55.5 -149z" />
<glyph unicode="A" horiz-adv-x="1955" d="M20 0l629 1434h656l630 -1434h-434l-117 276h-827l-117 -276h-420zM694 596h555l-278 655z" />
<glyph unicode="B" horiz-adv-x="1894" d="M172 0v1434h1004q270 0 426.5 -106.5t156.5 -278.5q0 -269 -395 -318q457 -41 457 -340q0 -182 -162 -286.5t-483 -104.5h-1004zM598 328h535q141 0 201.5 26.5t60.5 91.5q0 68 -59.5 94.5t-182.5 26.5h-555v-239zM598 879h557q84 0 131 30.5t47 83.5q0 113 -178 113 h-557v-227z" />
<glyph unicode="C" horiz-adv-x="1943" d="M90 717q0 350 239.5 545.5t671.5 195.5q354 0 575.5 -136t270.5 -370l-409 -26q-35 84 -154 135t-283 51q-233 0 -359 -107.5t-126 -287.5q0 -182 132 -288.5t380 -106.5q178 0 289.5 57t146.5 149l414 -20q-43 -262 -259 -397.5t-591 -135.5q-446 0 -692 196t-246 546z " />
<glyph unicode="D" horiz-adv-x="1982" d="M172 0v1434h811q422 0 665.5 -186.5t243.5 -530.5t-243.5 -530.5t-665.5 -186.5h-811zM598 348h340q260 0 394 95.5t134 273.5t-134 273t-394 95h-340v-737z" />
<glyph unicode="E" horiz-adv-x="1765" d="M172 0v1434h1460v-332h-1034v-217h807v-312h-807v-241h1073v-332h-1499z" />
<glyph unicode="F" horiz-adv-x="1681" d="M172 0v1434h1423v-349h-997v-217h795v-340h-795v-528h-426z" />
<glyph unicode="G" horiz-adv-x="1994" d="M90 717q0 350 239.5 545.5t669.5 195.5q340 0 559.5 -127t278.5 -346l-416 -27q-47 70 -159.5 112t-262.5 42q-233 0 -358 -107.5t-125 -287.5q0 -184 142.5 -289.5t426.5 -105.5q203 0 412 40v154h-485v281h872v-676q-397 -145 -809 -146q-467 0 -726 196t-259 546z" />
<glyph unicode="H" horiz-adv-x="2019" d="M172 0v1434h426v-531h823v531h426v-1434h-426v555h-823v-555h-426z" />
<glyph unicode="I" horiz-adv-x="770" d="M172 0v1434h426v-1434h-426z" />
<glyph unicode="J" horiz-adv-x="1646" d="M82 520v127h393v-121q0 -202 284 -202h3q141 0 214 58t73 196v856h426v-881q0 -291 -182.5 -434.5t-516.5 -143.5q-342 0 -518 140.5t-176 404.5z" />
<glyph unicode="K" horiz-adv-x="1916" d="M172 0v1434h426v-553h203l518 553h510l-690 -689l753 -745h-538l-545 555h-211v-555h-426z" />
<glyph unicode="L" horiz-adv-x="1593" d="M172 0v1434h426v-1086h930v-348h-1356z" />
<glyph unicode="M" horiz-adv-x="2584" d="M172 0v1434h746l378 -1184l371 1184h746l-3 -1434h-407v1202l-424 -1202h-575l-424 1202v-1202h-408z" />
<glyph unicode="N" horiz-adv-x="2064" d="M172 0v1434h723l590 -1192v1192h407v-1434h-723l-589 1192v-1192h-408z" />
<glyph unicode="O" horiz-adv-x="2084" d="M90 717q0 348 252 544.5t700.5 196.5t700.5 -196.5t252 -544.5t-252 -545t-700.5 -197t-700.5 197t-252 545zM516 717q0 -180 138.5 -287.5t388 -107.5t388 107.5t138.5 287.5t-138.5 287.5t-388 107.5t-388 -107.5t-138.5 -287.5z" />
<glyph unicode="P" horiz-adv-x="1835" d="M172 0v1434h426h567q258 0 427 -120t169 -363.5t-161.5 -353.5t-434.5 -110h-567v-487h-426zM598 815h547q190 0 190 135t-190 135h-547v-270z" />
<glyph unicode="Q" horiz-adv-x="2084" d="M90 717q0 348 252 544.5t700.5 196.5t700.5 -196.5t252 -544.5q0 -397 -324 -594l150 -164l-279 -180l-203 223q-131 -27 -297 -27q-449 0 -700.5 197t-251.5 545zM516 717q0 -180 138 -287.5t388 -107.5h5l-74 81l280 181l156 -170q160 106 160 303q0 180 -138.5 287.5 t-388 107.5t-388 -107.5t-138.5 -287.5z" />
<glyph unicode="R" horiz-adv-x="1904" d="M172 0v1434h426h594q258 0 427 -119t169 -359q0 -383 -440 -440l524 -516h-539l-469 508h-266v-508h-426zM598 827h573q88 0 139.5 33t51.5 96.5t-52.5 100.5t-138.5 37h-573v-267z" />
<glyph unicode="S" horiz-adv-x="1771" d="M57 496l402 10q18 -90 124.5 -154.5t313.5 -64.5q150 0 262.5 26.5t112.5 83.5q0 66 -170 105l-549 125q-424 96 -424 393q0 113 58.5 200t161 137t229.5 75.5t272 25.5q328 0 543 -126t241 -355l-403 -16q-20 74 -118.5 130t-281.5 56q-121 0 -198.5 -26.5t-77.5 -73.5 q0 -63 164 -101l502 -110q242 -53 359.5 -143.5t117.5 -258.5q0 -231 -215 -345t-588 -114q-795 0 -838 521z" />
<glyph unicode="T" horiz-adv-x="1732" d="M49 1085v349h1634v-349h-604v-1085h-426v1085h-604z" />
<glyph unicode="U" horiz-adv-x="2029" d="M172 612v822h426v-779q0 -156 101.5 -243.5t316.5 -87.5q416 0 416 331v779h426v-822q0 -301 -215.5 -469t-626.5 -168q-414 0 -629 168t-215 469z" />
<glyph unicode="V" horiz-adv-x="1882" d="M25 1434h446l471 -1227l481 1227h435l-601 -1434h-641z" />
<glyph unicode="W" horiz-adv-x="2775" d="M39 1434h455l299 -1145l301 1145h598l295 -1147l309 1147h440l-426 -1434h-633l-288 1149l-302 -1149h-634z" />
<glyph unicode="X" horiz-adv-x="1875" d="M29 0l655 737l-598 697h502l342 -445l366 445h478l-590 -686l659 -748h-502l-413 485l-422 -485h-477z" />
<glyph unicode="Y" horiz-adv-x="1933" d="M20 1434h504l451 -594l450 594h488l-733 -897v-537h-426v537z" />
<glyph unicode="Z" d="M39 0v295l975 790h-905v349h1527v-295l-977 -791h1008v-348h-1628z" />
<glyph unicode="[" horiz-adv-x="856" d="M184 -356v1882h639v-324h-270v-1235h270v-323h-639z" />
<glyph unicode="\" horiz-adv-x="1073" d="M63 1511h365l616 -1646h-364z" />
<glyph unicode="]" horiz-adv-x="856" d="M33 -33h270v1235h-270v324h639v-1882h-639v323z" />
<glyph unicode="^" horiz-adv-x="1052" d="M43 903l307 531h355l305 -531h-299l-185 381l-184 -381h-299z" />
<glyph unicode="_" horiz-adv-x="1130" d="M20 -31h1090v-268h-1090v268z" />
<glyph unicode="`" horiz-adv-x="790" d="M82 1507h418l209 -313h-310z" />
<glyph unicode="a" horiz-adv-x="1607" d="M86 311q0 168 156.5 243t468.5 93l368 23q-20 153 -259 153h-3q-213 0 -268 -96h-381q12 104 71.5 180t152.5 116t197.5 57.5t227.5 17.5q672 -4 672 -543v-555h-379v209q-170 -233 -530 -234q-240 0 -367 92.5t-127 243.5zM489 334q0 -84 201 -84q172 0 281.5 57.5 t109.5 124.5v17l-317 -21q-141 -8 -208 -28.5t-67 -65.5z" />
<glyph unicode="b" d="M127 0v1507h408v-581q149 172 460 172q279 0 456 -150.5t177 -411t-176 -411t-453 -150.5q-342 0 -493 211v-186h-379zM516 536.5q0 -114.5 95.5 -184t259 -69.5t259 69.5t95.5 184t-95.5 184.5t-259 70t-259 -70t-95.5 -184.5z" />
<glyph unicode="c" horiz-adv-x="1615" d="M82 536.5q0 268.5 199.5 415t543.5 146.5q285 0 479.5 -110.5t225.5 -307.5l-395 -23q-35 61 -117 97.5t-193 36.5q-156 0 -248 -70t-92 -184.5t94.5 -184t256.5 -69.5q123 0 203.5 38.5t113.5 104.5l397 -20q-33 -203 -227.5 -317t-486.5 -114q-352 0 -553 146.5 t-201 415z" />
<glyph unicode="d" d="M82 536.5q0 260.5 177 411t456 150.5q311 0 461 -172v581h407v-1507h-379v186q-152 -211 -493 -211q-276 0 -452.5 150.5t-176.5 411zM485 536.5q0 -114.5 95.5 -184t259.5 -69.5t259 69.5t95 184t-95 184.5t-259 70t-259.5 -70t-95.5 -184.5z" />
<glyph unicode="e" horiz-adv-x="1662" d="M82 537q0 283 208 422t564 139q365 0 548 -153.5t183 -489.5v-39h-1083q70 -166 370 -166q203 0 293 72l402 -17q-61 -160 -238.5 -245t-456.5 -85q-367 0 -578.5 138.5t-211.5 423.5zM502 657h682q-31 166 -330 166q-287 0 -352 -166z" />
<glyph unicode="f" horiz-adv-x="1110" d="M41 768v305h278v31q0 236 126 332t382 96q113 0 248 -14v-312q-88 8 -145 8q-203 0 -203 -131v-10h317v-305h-317v-768h-408v768h-278z" />
<glyph unicode="g" horiz-adv-x="1701" d="M82 571.5q0 239.5 173 383t460 143.5q332 0 481 -197v172h379v-815q0 -369 -178 -530.5t-547 -161.5q-289 0 -466 99t-204 298h389q66 -90 281 -90q170 0 243.5 66.5t73.5 214.5v57q-158 -166 -456 -166q-285 0 -457 143.5t-172 383zM485 557q0 -98 96.5 -165.5 t258 -67.5t258 67.5t96.5 165.5t-96.5 166t-258 68t-258 -68t-96.5 -166z" />
<glyph unicode="h" horiz-adv-x="1646" d="M127 0v1507h408v-624q157 215 483 215q252 0 381 -137.5t129 -397.5v-563h-408v438q0 160 -60.5 242t-201.5 82q-158 0 -240.5 -94.5t-82.5 -255.5v-412h-408z" />
<glyph unicode="i" horiz-adv-x="661" d="M115 1190v313h432v-313h-432zM127 0v1073h408v-1073h-408z" />
<glyph unicode="j" horiz-adv-x="661" d="M-96 -96q31 -2 69 -2q80 0 117 32.5t37 143.5v995h408v-1077q0 -233 -95.5 -331.5t-324.5 -98.5q-72 0 -211 10v328zM115 1190v313h432v-313h-432z" />
<glyph unicode="k" horiz-adv-x="1593" d="M127 0v1507h408v-811h143l364 377h496l-561 -502l602 -571h-528l-379 379h-137v-379h-408z" />
<glyph unicode="l" horiz-adv-x="661" d="M127 0v1507h408v-1507h-408z" />
<glyph unicode="m" horiz-adv-x="2471" d="M127 0v1073h379v-231q145 256 467 256q162 0 272.5 -72t159.5 -203q145 275 477 275q225 0 348 -135.5t123 -374.5v-588h-407v485q0 125 -56.5 201t-171.5 76q-127 0 -200.5 -91t-73.5 -259v-412h-408v485q0 125 -56 201t-171 76q-127 0 -200.5 -91t-73.5 -259v-412h-408 z" />
<glyph unicode="n" horiz-adv-x="1646" d="M127 0v1073h379v-235q154 260 512 260q252 0 381 -137.5t129 -397.5v-563h-408v438q0 160 -60.5 242t-201.5 82q-158 0 -240.5 -94.5t-82.5 -255.5v-412h-408z" />
<glyph unicode="o" horiz-adv-x="1699" d="M82 536.5q0 264.5 209 413t559 148.5t559 -148.5t209 -413t-209 -413t-559 -148.5t-559 148.5t-209 413zM485 536.5q0 -106.5 96.5 -180t268.5 -73.5t268 73.5t96 180t-96 180.5t-268 74t-268.5 -74t-96.5 -180.5z" />
<glyph unicode="p" d="M127 -410v1483h379v-184q147 209 489 209q279 0 456 -150.5t177 -411t-176 -411t-453 -150.5q-307 0 -464 175v-560h-408zM516 536.5q0 -114.5 95.5 -184t259 -69.5t259 69.5t95.5 184t-95.5 184.5t-259 70t-259 -70t-95.5 -184.5z" />
<glyph unicode="q" d="M82 536.5q0 260.5 177 411t456 150.5q342 0 489 -209v184h379v-1483h-407v560q-158 -174 -465 -175q-276 0 -452.5 150.5t-176.5 411zM485 536.5q0 -114.5 95.5 -184t259.5 -69.5t259 69.5t95 184t-95 184.5t-259 70t-259.5 -70t-95.5 -184.5z" />
<glyph unicode="r" horiz-adv-x="1175" d="M127 0v1073h379v-264q63 141 174 215t254 74q88 0 170 -21v-354q-123 20 -225 20q-180 0 -262 -90t-82 -305v-348h-408z" />
<glyph unicode="s" horiz-adv-x="1470" d="M39 344l377 12q43 -106 352 -106q242 0 242 47q0 43 -109 63l-446 80q-186 35 -276.5 118t-90.5 198q0 94 49 162.5t137 106.5t192.5 55.5t231.5 17.5q131 0 243 -19.5t207 -60.5t155.5 -111.5t74.5 -165.5l-377 -14q-53 96 -327 96q-178 0 -178 -53q0 -45 102 -61 l416 -72q403 -70 403 -318q0 -344 -688 -344q-643 0 -690 369z" />
<glyph unicode="t" horiz-adv-x="1173" d="M39 768v301h219q57 0 82 21.5t25 68.5v180h387v-266h346v-305h-346v-289q0 -96 36.5 -132t147.5 -36q76 0 162 13v-328q-129 -20 -254 -21q-258 0 -379 100.5t-121 342.5v350h-305z" />
<glyph unicode="u" horiz-adv-x="1646" d="M119 522v551h407v-426q0 -336 267 -336q156 0 237.5 105.5t81.5 271.5v385h408v-1073h-379v252q-158 -276 -510 -277q-248 0 -380 144.5t-132 402.5z" />
<glyph unicode="v" horiz-adv-x="1607" d="M25 1073h446l334 -850l342 850h436l-483 -1073h-600z" />
<glyph unicode="w" horiz-adv-x="2465" d="M39 1073h446l252 -799l221 799h570l209 -768l254 768h436l-397 -1073h-578l-215 844l-221 -844h-588z" />
<glyph unicode="x" horiz-adv-x="1640" d="M33 0l540 551l-510 522h492l266 -299l269 299h475l-506 -514l549 -559h-492l-303 336l-305 -336h-475z" />
<glyph unicode="y" horiz-adv-x="1626" d="M29 1073h446l402 -885l284 885h436l-452 -1112q-94 -227 -233.5 -311t-407.5 -84q-98 0 -209 12v311q94 -6 184 -6q123 0 185.5 22.5t89.5 90.5l2 4h-183z" />
<glyph unicode="z" horiz-adv-x="1437" d="M33 0v279l729 477h-672v317h1278v-278l-731 -478h758v-317h-1362z" />
<glyph unicode="{" horiz-adv-x="854" d="M57 446v277h25q80 0 136 47t56 154v174q0 127 37 214t109 132t160 63.5t208 18.5h37v-277h-22q-184 0 -185 -168v-198q0 -262 -317 -293v-8q317 -33 317 -295v-197q0 -170 185 -170h22v-276h-37q-121 0 -208.5 18.5t-159.5 63.5t-109 132t-37 214v174q0 106 -56 153 t-136 47h-25z" />
<glyph unicode="|" horiz-adv-x="636" d="M172 -248v1755h293v-1755h-293z" />
<glyph unicode="}" horiz-adv-x="854" d="M29 -80h22q184 0 185 170v197q0 262 317 295v8q-317 31 -317 293v198q0 168 -185 168h-22v277h37q121 0 208.5 -18.5t159.5 -63.5t109 -132t37 -214v-174q0 -106 56 -153.5t136 -47.5h25v-277h-25q-80 0 -136 -47t-56 -153v-174q0 -127 -37 -214t-109 -132t-160 -63.5 t-208 -18.5h-37v276z" />
<glyph unicode="~" horiz-adv-x="1400" d="M147 522q0 362 304 363q104 0 193 -39t155.5 -77t115.5 -38q109 0 109 119h229q0 -362 -305 -363q-82 0 -156.5 25t-118.5 53.5t-95.5 53t-92.5 24.5q-109 0 -108 -121h-230z" />
<glyph unicode="&#xa2;" horiz-adv-x="1585" d="M82 537q0 250 173 395t472 164v153h176v-155q240 -16 399.5 -120t196.5 -280l-369 -30q-53 102 -227 129v-514q195 23 246 139l371 -27q-35 -182 -201 -289.5t-416 -124.5v-153h-176v153q-301 20 -473 166t-172 394zM461 536.5q0 -104.5 69.5 -171t196.5 -84.5v512 q-125 -16 -195.5 -84t-70.5 -172.5z" />
<glyph unicode="&#xa3;" horiz-adv-x="1556" d="M29 0v297q264 113 264 287q0 23 -2 32h-228v213h164q-27 94 -26 172q0 211 171 322t474 111q305 0 451.5 -114t175.5 -331l-394 -26q-25 133 -233 133q-233 0 -234 -160q0 -41 19 -107h502v-213h-435q6 -27 7 -53q0 -149 -199 -225h1026v-338h-1503z" />
<glyph unicode="&#xa5;" horiz-adv-x="1828" d="M20 1409h478l420 -510l428 510h462l-688 -768v-4h500v-188h-500v-87h500v-188h-500v-174h-411v174h-500v188h500v87h-500v188h500v12z" />
<glyph unicode="&#xa8;" horiz-adv-x="1040" d="M82 1200v266h360v-266h-360zM598 1200v266h360v-266h-360z" />
<glyph unicode="&#xa9;" horiz-adv-x="1662" d="M90 717q0 334 209 537.5t532.5 203.5t532.5 -203.5t209 -537.5t-209 -538t-532.5 -204t-532.5 204t-209 538zM295 716.5q0 -237.5 150.5 -397t386 -159.5t386 159.5t150.5 397t-150.5 397.5t-386 160t-386 -160t-150.5 -397.5zM459 717q0 199 101.5 306t277.5 107 q154 0 255 -80.5t115 -222.5l-260 -22q-20 115 -110 115q-111 0 -111 -203q0 -201 119 -201q94 0 112 123l261 -14q-8 -154 -110.5 -238t-262.5 -84q-180 0 -283.5 108.5t-103.5 305.5z" />
<glyph unicode="&#xab;" horiz-adv-x="1478" d="M53 508v131l357 336h385l-435 -402l435 -401h-385zM655 508v131l357 336h385l-434 -402l434 -401h-385z" />
<glyph unicode="&#xad;" horiz-adv-x="1001" d="M111 455v315h780v-315h-780z" />
<glyph unicode="&#xae;" horiz-adv-x="1171" d="M74 946.5q0 229.5 146.5 370.5t365.5 141t365.5 -141t146.5 -370.5t-146.5 -371t-365.5 -141.5t-365.5 141.5t-146.5 371zM201 946q0 -170 104.5 -281.5t280.5 -111.5t280.5 111.5t104.5 281.5t-104.5 281.5t-280.5 111.5t-280.5 -111.5t-104.5 -281.5zM422 696v533h201 q66 0 111.5 -44t45.5 -132q0 -131 -88 -152l107 -205h-135l-82 197h-35v-197h-125zM547 985h57q27 0 42.5 19.5t15.5 48.5q0 74 -56 73h-59v-141z" />
<glyph unicode="&#xb4;" horiz-adv-x="790" d="M82 1194l209 313h418l-318 -313h-309z" />
<glyph unicode="&#xb8;" horiz-adv-x="806" d="M82 -287l166 6q27 -49 117 -49q115 0 114 60q0 27 -27.5 44t-70.5 17q-57 0 -115 -22l-133 55l131 176h150l-86 -121q71 29 147 29q98 0 174 -44t76 -134q0 -102 -93 -147.5t-226 -45.5q-135 0 -221.5 46t-102.5 130z" />
<glyph unicode="&#xbb;" horiz-adv-x="1478" d="M82 172l434 401l-434 402h385l356 -336v-131l-356 -336h-385zM684 172l434 401l-434 402h385l356 -336v-131l-356 -336h-385z" />
<glyph unicode="&#x2c6;" horiz-adv-x="1116" d="M82 1194l268 313h416l268 -313h-278l-197 205l-199 -205h-278z" />
<glyph unicode="&#x2da;" horiz-adv-x="802" d="M82 1411.5q0 108.5 91 168.5t228.5 60t228.5 -60t91 -168.5t-91 -170t-228.5 -61.5t-228.5 61.5t-91 170zM268 1411q0 -39 36 -62.5t97.5 -23.5t97.5 23.5t36 62.5q0 84 -133.5 84t-133.5 -84z" />
<glyph unicode="&#x2dc;" horiz-adv-x="1118" d="M82 1198q0 279 266 279q109 0 229.5 -50.5t161.5 -50.5q86 0 86 80h211q0 -279 -266 -278q-109 0 -229.5 51t-161.5 51q-86 0 -86 -82h-211z" />
<glyph unicode="&#x401;" horiz-adv-x="1765" d="M172 0v1434h1460v-332h-1034v-217h807v-312h-807v-241h1073v-332h-1499zM391 1548v269h402v-269h-402zM973 1548v269h401v-269h-401z" />
<glyph unicode="&#x404;" horiz-adv-x="1949" d="M90 717q0 350 240.5 545.5t675.5 195.5q350 0 571 -132t274 -359l-413 -25q-41 78 -158 124t-274 46q-352 0 -455 -225h616v-316h-624q96 -250 489 -249q172 0 282.5 52t151.5 138l418 -18q-47 -256 -262 -387.5t-590 -131.5q-449 0 -695.5 196t-246.5 546z" />
<glyph unicode="&#x406;" horiz-adv-x="770" d="M172 0v1434h426v-1434h-426z" />
<glyph unicode="&#x407;" horiz-adv-x="770" d="M-59 1548v269h360v-269h-360zM172 0v1434h426v-1434h-426zM469 1548v269h360v-269h-360z" />
<glyph unicode="&#x40e;" horiz-adv-x="1886" d="M29 1434h475l522 -836l379 836h461l-500 -959q-94 -180 -177 -279.5t-202 -153.5t-287 -54q-121 0 -278 18v332q145 -12 231 -12q186 0 242 104h-186zM471 1880h270q14 -121 203 -121q186 0 201 121h272q-14 -338 -473 -338t-473 338z" />
<glyph unicode="&#x410;" horiz-adv-x="1955" d="M20 0l629 1434h656l630 -1434h-434l-117 276h-827l-117 -276h-420zM694 596h555l-278 655z" />
<glyph unicode="&#x411;" horiz-adv-x="1841" d="M172 0v1434h426h1024v-328h-1024v-203h584q266 0 431 -111.5t165 -338.5q0 -231 -164 -342t-432 -111h-832h-178zM598 328h551q203 0 203 127q0 125 -203 125h-551v-252z" />
<glyph unicode="&#x412;" horiz-adv-x="1894" d="M172 0v1434h1004q270 0 426.5 -106.5t156.5 -278.5q0 -269 -395 -318q457 -41 457 -340q0 -182 -162 -286.5t-483 -104.5h-1004zM598 328h535q141 0 201.5 26.5t60.5 91.5q0 68 -59.5 94.5t-182.5 26.5h-555v-239zM598 879h557q84 0 131 30.5t47 83.5q0 113 -178 113 h-557v-227z" />
<glyph unicode="&#x413;" horiz-adv-x="1589" d="M172 0v1434h1354v-349h-928v-1085h-426z" />
<glyph unicode="&#x414;" horiz-adv-x="1959" d="M12 -326v674h170q76 78 124 324t63 762h1376v-1086h190v-674h-399v326h-1124v-326h-400zM588 348h731v737h-567q-29 -307 -76 -485q-43 -170 -88 -252z" />
<glyph unicode="&#x415;" horiz-adv-x="1765" d="M172 0v1434h1460v-332h-1034v-217h807v-312h-807v-241h1073v-332h-1499z" />
<glyph unicode="&#x416;" horiz-adv-x="2908" d="M25 0l702 743l-670 691h510l484 -553h196v553h414v-553h199l481 553h510l-670 -691l703 -743h-533l-496 553h-194v-553h-414v553h-192l-498 -553h-532z" />
<glyph unicode="&#x417;" horiz-adv-x="1771" d="M53 463l410 14q47 -174 430 -174q184 0 281.5 39t97.5 98q0 57 -96.5 95t-292.5 38h-209v312h176q180 0 270 33.5t90 89t-86 89t-233 33.5q-334 0 -383 -155l-408 22q37 225 245 343t546 118q211 0 369.5 -31.5t267 -118.5t108.5 -227q0 -293 -469 -338q530 -43 531 -358 q0 -109 -61.5 -189.5t-173 -128t-254 -70t-316.5 -22.5q-383 0 -593 116t-247 372z" />
<glyph unicode="&#x418;" horiz-adv-x="2074" d="M172 0v1434h416v-1133l659 1133h656v-1434h-416v1133l-660 -1133h-655z" />
<glyph unicode="&#x419;" horiz-adv-x="2074" d="M172 0v1434h416v-1133l659 1133h656v-1434h-416v1133l-660 -1133h-655zM565 1880h271q14 -121 202 -121q186 0 201 121h272q-14 -338 -472.5 -338t-473.5 338z" />
<glyph unicode="&#x41a;" horiz-adv-x="1916" d="M172 0v1434h426v-553h203l518 553h510l-690 -689l753 -745h-538l-545 555h-211v-555h-426z" />
<glyph unicode="&#x41b;" horiz-adv-x="2017" d="M39 0v346q66 -8 108 -8q45 0 79 13.5t59.5 46t43 69.5t30 100.5t19.5 122t12 152.5t8 172t8.5 200t11.5 220h1427v-1434h-426v1085h-616q-4 -57 -10 -167q-10 -178 -17.5 -263.5t-27 -216.5t-53 -193.5t-90 -132t-142.5 -96t-203 -26.5q-82 0 -221 10z" />
<glyph unicode="&#x41c;" horiz-adv-x="2584" d="M172 0v1434h746l378 -1184l371 1184h746l-3 -1434h-407v1202l-424 -1202h-575l-424 1202v-1202h-408z" />
<glyph unicode="&#x41d;" horiz-adv-x="2019" d="M172 0v1434h426v-531h823v531h426v-1434h-426v555h-823v-555h-426z" />
<glyph unicode="&#x41e;" horiz-adv-x="2084" d="M90 717q0 348 252 544.5t700.5 196.5t700.5 -196.5t252 -544.5t-252 -545t-700.5 -197t-700.5 197t-252 545zM516 717q0 -180 138.5 -287.5t388 -107.5t388 107.5t138.5 287.5t-138.5 287.5t-388 107.5t-388 -107.5t-138.5 -287.5z" />
<glyph unicode="&#x41f;" horiz-adv-x="2007" d="M172 0v1434h1663v-1434h-426v1085h-811v-1085h-426z" />
<glyph unicode="&#x420;" horiz-adv-x="1835" d="M172 0v1434h426h567q258 0 427 -120t169 -363.5t-161.5 -353.5t-434.5 -110h-567v-487h-426zM598 815h547q190 0 190 135t-190 135h-547v-270z" />
<glyph unicode="&#x421;" horiz-adv-x="1943" d="M90 717q0 350 239.5 545.5t671.5 195.5q354 0 575.5 -136t270.5 -370l-409 -26q-35 84 -154 135t-283 51q-233 0 -359 -107.5t-126 -287.5q0 -182 132 -288.5t380 -106.5q178 0 289.5 57t146.5 149l414 -20q-43 -262 -259 -397.5t-591 -135.5q-446 0 -692 196t-246 546z " />
<glyph unicode="&#x422;" horiz-adv-x="1732" d="M49 1085v349h1634v-349h-604v-1085h-426v1085h-604z" />
<glyph unicode="&#x423;" horiz-adv-x="1886" d="M29 1434h475l522 -836l379 836h461l-500 -959q-94 -180 -177 -279.5t-202 -153.5t-287 -54q-121 0 -278 18v332q145 -12 231 -12q186 0 242 104h-186z" />
<glyph unicode="&#x424;" horiz-adv-x="2437" d="M86 745.5q0 278.5 197.5 434t582.5 155.5h148v123h409v-123h148q385 0 582.5 -155.5t197.5 -434t-197.5 -433t-582.5 -154.5h-148v-158h-409v158h-148q-385 0 -582.5 154.5t-197.5 433zM512 745q0 -129 91 -193.5t288 -64.5h123v519h-123q-379 0 -379 -261zM1423 487h123 q197 0 288 64.5t91 193.5q0 260 -379 261h-123v-519z" />
<glyph unicode="&#x425;" horiz-adv-x="1875" d="M29 0l655 737l-598 697h502l342 -445l366 445h478l-590 -686l659 -748h-502l-413 485l-422 -485h-477z" />
<glyph unicode="&#x426;" horiz-adv-x="2050" d="M172 0v1434h426v-1086h811v1086h426v-1086h190v-674h-399v326h-1454z" />
<glyph unicode="&#x427;" horiz-adv-x="1894" d="M123 946v488h426v-410q0 -117 86 -159t278 -42q197 0 383 39v572h426v-1434h-426v518q-287 -43 -508 -43q-326 0 -495.5 122t-169.5 349z" />
<glyph unicode="&#x428;" horiz-adv-x="2734" d="M172 0v1434h416v-1086h571v1086h416v-1086h571v1086h416v-1434h-2390z" />
<glyph unicode="&#x429;" horiz-adv-x="2779" d="M172 0v1434h416v-1086h571v1086h416v-1086h571v1086h416v-1086h193v-674h-400v326h-2183z" />
<glyph unicode="&#x42a;" horiz-adv-x="2095" d="M43 1085v349h844v-488h549q268 0 432 -114.5t164 -360.5q0 -244 -163 -357.5t-433 -113.5h-797h-178v1085h-418zM887 348h528q190 0 190.5 131t-190.5 131h-528v-262z" />
<glyph unicode="&#x42b;" horiz-adv-x="2512" d="M172 0v1434h426v-488h510q268 0 432 -114.5t164 -360.5q0 -244 -163 -357.5t-433 -113.5h-758h-178zM598 348h489q190 0 190.5 131t-190.5 131h-489v-262zM1915 0v1434h426v-1434h-426z" />
<glyph unicode="&#x42c;" horiz-adv-x="1806" d="M172 0v1434h426v-488h549q268 0 432 -114.5t164 -360.5q0 -244 -163 -357.5t-433 -113.5h-797h-178zM598 348h528q190 0 190.5 131t-190.5 131h-528v-262z" />
<glyph unicode="&#x42d;" horiz-adv-x="1949" d="M66 494l417 18q41 -86 151.5 -138t283.5 -52q393 0 489 249h-625v316h617q-102 225 -455 225q-158 0 -274.5 -46t-157.5 -124l-414 25q53 227 274.5 359t571.5 132q434 0 675 -195.5t241 -545.5t-247 -546t-695 -196q-375 0 -590 131.5t-262 387.5z" />
<glyph unicode="&#x42e;" horiz-adv-x="2795" d="M172 0v1434h426v-531h293q61 264 292.5 409.5t604.5 145.5q436 0 676.5 -197.5t240.5 -543.5t-240.5 -544t-676.5 -198q-381 0 -614.5 153t-288.5 427h-287v-555h-426zM1296 717q0 -178 127 -286.5t364.5 -108.5t364.5 108.5t127 286.5t-127 286.5t-364.5 108.5 t-364.5 -108.5t-127 -286.5z" />
<glyph unicode="&#x42f;" horiz-adv-x="1904" d="M33 0l495 518q-434 55 -434 438q0 240 169 359t427 119h1043v-1434h-426v508h-306l-430 -508h-538zM520 956.5q0 -63.5 51.5 -96.5t139.5 -33h596v267h-596q-86 0 -138.5 -37t-52.5 -100.5z" />
<glyph unicode="&#x430;" horiz-adv-x="1607" d="M86 311q0 168 156.5 243t468.5 93l368 23q-20 154 -262 153q-213 0 -268 -96h-381q12 104 71.5 180t152.5 116t197.5 57.5t227.5 17.5q672 -4 672 -543v-555h-379v209q-170 -233 -530 -234q-240 0 -367 92.5t-127 243.5zM489 334q0 -84 201 -84q172 0 281.5 57.5 t109.5 124.5v17l-317 -21q-141 -8 -208 -28.5t-67 -65.5z" />
<glyph unicode="&#x431;" horiz-adv-x="1718" d="M98 692q0 313 138.5 487.5t439.5 241.5q117 27 448 60q268 27 357 51v-315q-90 -43 -320 -62l-280 -20q-82 -6 -135.5 -15.5t-113 -32t-98 -59.5t-71.5 -99.5t-51 -150.5q153 248 536 248q305 0 496.5 -146.5t191.5 -379.5q0 -236 -206.5 -380.5t-563.5 -144.5 q-352 0 -560 175.5t-208 541.5zM502 499.5q0 -100.5 96 -158.5t268 -58t269.5 58t97.5 158.5t-97.5 160t-269.5 59.5t-268 -59.5t-96 -160z" />
<glyph unicode="&#x432;" horiz-adv-x="1558" d="M127 0v1073h815q270 0 386 -75.5t116 -194.5q0 -195 -311 -242q180 -14 272 -73.5t92 -182.5q0 -53 -18.5 -99t-68.5 -96.5t-159.5 -80t-269.5 -29.5h-854zM535 281h393q162 0 162 73.5t-175 73.5h-380v-147zM535 666h358q143 0 143 63.5t-159 63.5h-342v-127z" />
<glyph unicode="&#x433;" horiz-adv-x="1298" d="M127 0v1073h1118v-336h-710v-737h-408z" />
<glyph unicode="&#x434;" horiz-adv-x="1703" d="M25 -279v615h129q55 96 77.5 242.5t51.5 494.5h1198v-737h190v-615h-385v279h-876v-279h-385zM530 336h543v401h-457q-33 -276 -86 -401z" />
<glyph unicode="&#x435;" horiz-adv-x="1662" d="M82 537q0 283 208 422t564 139q365 0 548 -153.5t183 -489.5v-39h-1083q70 -166 370 -166q203 0 293 72l402 -17q-61 -160 -238.5 -245t-456.5 -85q-367 0 -578.5 138.5t-211.5 423.5zM502 657h682q-31 166 -330 166q-287 0 -352 -166z" />
<glyph unicode="&#x436;" horiz-adv-x="2404" d="M14 0l564 571l-537 502h491l340 -377h132v377h397v-377h131l340 377h491l-536 -502l563 -571h-512l-352 379h-125v-379h-397v379h-125l-353 -379h-512z" />
<glyph unicode="&#x437;" horiz-adv-x="1529" d="M53 367l398 8q20 -49 105 -80t218 -31q287 0 287 82t-311 82h-144v238h125q276 0 276.5 71.5t-231.5 71.5q-236 0 -274 -102l-398 14q20 195 204 286t468 91q326 0 482.5 -76t156.5 -211q0 -197 -315 -250q369 -39 368 -254q0 -61 -31.5 -116.5t-104 -105.5t-216 -80 t-342.5 -30q-680 0 -721 392z" />
<glyph unicode="&#x438;" horiz-adv-x="1726" d="M127 0v1073h389v-788l494 788h589v-1073h-389v788l-493 -788h-590z" />
<glyph unicode="&#x439;" horiz-adv-x="1726" d="M127 0v1073h389v-788l494 788h589v-1073h-389v788l-493 -788h-590zM403 1536h271q6 -53 50 -94t140 -41q94 0 138.5 41t52.5 94h270q-6 -162 -120.5 -257t-340 -95t-340 94t-121.5 258z" />
<glyph unicode="&#x43a;" horiz-adv-x="1593" d="M127 0v1073h408v-377h143l364 377h496l-561 -502l602 -571h-528l-379 379h-137v-379h-408z" />
<glyph unicode="&#x43b;" horiz-adv-x="1656" d="M53 -4v334q49 -4 72 -4q121 0 151.5 100t53.5 481q6 107 10 166h1190v-1073h-408v737h-432q-2 -29 -8 -82q-16 -158 -26.5 -231.5t-40 -178t-74.5 -148.5t-125 -78.5t-197 -34.5q-74 0 -166 12z" />
<glyph unicode="&#x43c;" horiz-adv-x="2203" d="M127 0v1073h678l301 -840l299 840h672v-1073h-389v819l-326 -819h-520l-326 819v-819h-389z" />
<glyph unicode="&#x43d;" horiz-adv-x="1652" d="M127 0v1073h408v-358h583v358h408v-1073h-408v379h-583v-379h-408z" />
<glyph unicode="&#x43e;" horiz-adv-x="1699" d="M82 536.5q0 264.5 209 413t559 148.5t559 -148.5t209 -413t-209 -413t-559 -148.5t-559 148.5t-209 413zM485 536.5q0 -106.5 96.5 -180t268.5 -73.5t268 73.5t96 180t-96 180.5t-268 74t-268.5 -74t-96.5 -180.5z" />
<glyph unicode="&#x43f;" horiz-adv-x="1636" d="M127 0v1073h1382v-1073h-407v737h-567v-737h-408z" />
<glyph unicode="&#x440;" d="M127 -410v1483h379v-184q147 209 489 209q279 0 456 -150.5t177 -411t-176 -411t-453 -150.5q-307 0 -464 175v-560h-408zM516 536.5q0 -114.5 95.5 -184t259 -69.5t259 69.5t95.5 184t-95.5 184.5t-259 70t-259 -70t-95.5 -184.5z" />
<glyph unicode="&#x441;" horiz-adv-x="1615" d="M82 536.5q0 268.5 199.5 415t543.5 146.5q285 0 479.5 -110.5t225.5 -307.5l-395 -23q-35 61 -117 97.5t-193 36.5q-156 0 -248 -70t-92 -184.5t94.5 -184t256.5 -69.5q123 0 203.5 38.5t113.5 104.5l397 -20q-33 -203 -227.5 -317t-486.5 -114q-352 0 -553 146.5 t-201 415z" />
<glyph unicode="&#x442;" horiz-adv-x="1472" d="M43 737v336h1387v-336h-490v-737h-408v737h-489z" />
<glyph unicode="&#x443;" horiz-adv-x="1626" d="M29 1073h446l402 -885l284 885h436l-452 -1112q-94 -227 -233.5 -311t-407.5 -84q-98 0 -209 12v311q94 -6 184 -6q123 0 185.5 22.5t89.5 90.5l2 4h-183z" />
<glyph unicode="&#x444;" horiz-adv-x="2224" d="M90 537q0 258 194.5 409.5t567.5 151.5h61v409h398v-409h61q373 0 567.5 -151.5t194.5 -409.5t-194.5 -410t-567.5 -152h-61v-385h-398v385h-61q-373 0 -567.5 152t-194.5 410zM487 536.5q0 -114.5 93.5 -184t283.5 -69.5h49v508h-49q-190 0 -283.5 -70t-93.5 -184.5z M1311 283h49q190 0 283.5 69.5t93.5 184t-93.5 184.5t-283.5 70h-49v-508z" />
<glyph unicode="&#x445;" horiz-adv-x="1640" d="M33 0l540 551l-510 522h492l266 -299l269 299h475l-506 -514l549 -559h-492l-303 336l-305 -336h-475z" />
<glyph unicode="&#x446;" horiz-adv-x="1732" d="M127 0v1073h408v-737h567v737h407v-737h191v-615h-385v279h-1188z" />
<glyph unicode="&#x447;" horiz-adv-x="1581" d="M94 758v315h408v-272q0 -84 56 -114t198 -30q131 0 291 29v387h407v-1073h-407v358q-229 -37 -412 -36q-270 0 -405.5 99t-135.5 337z" />
<glyph unicode="&#x448;" horiz-adv-x="2316" d="M127 0v1073h399v-737h432v737h400v-737h432v737h399v-1073h-2062z" />
<glyph unicode="&#x449;" horiz-adv-x="2412" d="M127 0v1073h399v-737h432v737h400v-737h432v737h399v-737h191v-615h-385v279h-1868z" />
<glyph unicode="&#x44a;" horiz-adv-x="1779" d="M43 735v338h735v-319h369q567 0 567 -377t-567 -377h-590h-186v735h-328zM778 291h340q190 0 191 90q0 92 -191 92h-340v-182z" />
<glyph unicode="&#x44b;" horiz-adv-x="2142" d="M127 0v1073h408v-319h333q567 0 567.5 -377t-567.5 -377h-557h-184zM535 291h305q190 0 190 90q0 92 -190 92h-305v-182zM1608 0v1073h407v-1073h-407z" />
<glyph unicode="&#x44c;" horiz-adv-x="1533" d="M127 0v1073h408v-319h366q567 0 567 -377t-567 -377h-590h-184zM535 291h337q190 0 191 90q0 92 -191 92h-337v-182z" />
<glyph unicode="&#x44d;" horiz-adv-x="1613" d="M66 391l407 15q78 -123 305 -123q242 0 322 141h-432v246h419q-88 121 -299 121q-215 0 -296 -115l-406 18q37 190 229 297t473 107q344 0 544 -146.5t200 -415t-201 -415t-553 -146.5q-287 0 -480.5 110t-231.5 306z" />
<glyph unicode="&#x44e;" horiz-adv-x="2326" d="M127 0v1073h408v-358h239q63 182 252.5 282.5t468.5 100.5q342 0 546 -149.5t204 -412t-204 -412t-546 -149.5q-287 0 -478.5 106.5t-248.5 297.5h-233v-379h-408zM1149 536.5q0 -112.5 89 -183t257 -70.5t257 70.5t89 183t-89 183.5t-257 71t-257 -71t-89 -183.5z" />
<glyph unicode="&#x44f;" horiz-adv-x="1570" d="M43 0l365 369q-309 72 -310 340q0 365 568 364h778v-1073h-408v344h-219l-280 -344h-494zM504 690q0 -94 190 -94h342v186h-342q-190 0 -190 -92z" />
<glyph unicode="&#x451;" horiz-adv-x="1662" d="M82 537q0 283 208 422t564 139q365 0 548 -153.5t183 -489.5v-39h-1083q70 -166 370 -166q203 0 293 72l402 -17q-61 -160 -238.5 -245t-456.5 -85q-367 0 -578.5 138.5t-211.5 423.5zM408 1200v266h360v-266h-360zM502 657h682q-31 166 -330 166q-287 0 -352 -166z M924 1200v266h360v-266h-360z" />
<glyph unicode="&#x454;" horiz-adv-x="1613" d="M82 536.5q0 268.5 199.5 415t543.5 146.5q281 0 473.5 -106.5t229.5 -297.5l-406 -18q-82 115 -297 115q-211 0 -299 -121h420v-246h-432q80 -141 322 -141q227 0 305 123l407 -15q-39 -197 -232.5 -306.5t-479.5 -109.5q-352 0 -553 146.5t-201 415z" />
<glyph unicode="&#x456;" horiz-adv-x="661" d="M115 1190v313h432v-313h-432zM127 0v1073h408v-1073h-408z" />
<glyph unicode="&#x457;" horiz-adv-x="661" d="M-86 1200v266h344v-266h-344zM127 0v1073h408v-1073h-408zM403 1200v266h345v-266h-345z" />
<glyph unicode="&#x45e;" horiz-adv-x="1626" d="M29 1073h446l402 -885l284 885h436l-452 -1112q-94 -227 -233.5 -311t-407.5 -84q-98 0 -209 12v311q94 -6 184 -6q123 0 185.5 22.5t89.5 90.5l2 4h-183zM365 1536h270q6 -53 50 -94t140 -41q94 0 138.5 41t52.5 94h270q-6 -162 -120.5 -257t-340 -95t-340 94 t-120.5 258z" />
<glyph unicode="&#x490;" horiz-adv-x="1601" d="M172 0v1434h954v338h400v-687h-928v-1085h-426z" />
<glyph unicode="&#x491;" horiz-adv-x="1306" d="M127 0v1073h733v291h385v-627h-710v-737h-408z" />
<glyph unicode="&#x4c1;" horiz-adv-x="2908" d="M25 0l702 743l-670 691h510l484 -553h196v553h414v-553h199l481 553h510l-670 -691l703 -743h-533l-496 553h-194v-553h-414v553h-192l-498 -553h-532zM981 1880h270q14 -121 203 -121q186 0 201 121h272q-14 -338 -473 -338t-473 338z" />
<glyph unicode="&#x4c2;" horiz-adv-x="2404" d="M14 0l564 571l-537 502h491l340 -377h132v377h397v-377h131l340 377h491l-536 -502l563 -571h-512l-352 379h-125v-379h-397v379h-125l-353 -379h-512zM741 1536h271q6 -53 50 -94t140 -41q94 0 138 41t53 94h270q-6 -162 -121 -257t-340 -95t-339.5 94t-121.5 258z" />
<glyph unicode="&#x2000;" horiz-adv-x="940" />
<glyph unicode="&#x2001;" horiz-adv-x="1880" />
<glyph unicode="&#x2002;" horiz-adv-x="940" />
<glyph unicode="&#x2003;" horiz-adv-x="1880" />
<glyph unicode="&#x2004;" horiz-adv-x="626" />
<glyph unicode="&#x2005;" horiz-adv-x="470" />
<glyph unicode="&#x2006;" horiz-adv-x="313" />
<glyph unicode="&#x2007;" horiz-adv-x="313" />
<glyph unicode="&#x2008;" horiz-adv-x="235" />
<glyph unicode="&#x2009;" horiz-adv-x="376" />
<glyph unicode="&#x200a;" horiz-adv-x="104" />
<glyph unicode="&#x2010;" horiz-adv-x="1001" d="M111 455v315h780v-315h-780z" />
<glyph unicode="&#x2011;" horiz-adv-x="1001" d="M111 455v315h780v-315h-780z" />
<glyph unicode="&#x2012;" horiz-adv-x="1001" d="M111 455v315h780v-315h-780z" />
<glyph unicode="&#x2013;" horiz-adv-x="1503" d="M111 455v315h1282v-315h-1282z" />
<glyph unicode="&#x2014;" horiz-adv-x="1865" d="M111 455v315h1644v-315h-1644z" />
<glyph unicode="&#x2018;" horiz-adv-x="667" d="M123 858v223l223 377h172v-600h-395z" />
<glyph unicode="&#x2019;" horiz-adv-x="667" d="M150 834v600h395v-224l-223 -376h-172z" />
<glyph unicode="&#x201a;" horiz-adv-x="667" d="M150 -207v600h395v-223l-223 -377h-172z" />
<glyph unicode="&#x201c;" horiz-adv-x="1218" d="M123 858v223l225 377h170v-600h-395zM674 858v223l223 377h172v-600h-395z" />
<glyph unicode="&#x201d;" horiz-adv-x="1218" d="M150 834v600h395v-224l-223 -376h-172zM700 834v600h396v-224l-226 -376h-170z" />
<glyph unicode="&#x201e;" horiz-adv-x="1218" d="M150 -207v600h395v-223l-223 -377h-172zM700 -207v600h396v-223l-226 -377h-170z" />
<glyph unicode="&#x2022;" horiz-adv-x="970" d="M184 645q0 127 85 212t216 85t216 -85t85 -212q0 -129 -85 -213t-216 -84t-216 84t-85 213z" />
<glyph unicode="&#x2026;" horiz-adv-x="1994" d="M143 0v393h443v-393h-443zM776 0v393h443v-393h-443zM1409 0v393h442v-393h-442z" />
<glyph unicode="&#x202f;" horiz-adv-x="376" />
<glyph unicode="&#x2039;" horiz-adv-x="876" d="M53 508v131l357 336h385l-435 -402l435 -401h-385z" />
<glyph unicode="&#x203a;" horiz-adv-x="876" d="M82 172l434 401l-434 402h385l356 -336v-131l-356 -336h-385z" />
<glyph unicode="&#x205f;" horiz-adv-x="470" />
<glyph unicode="&#x20ac;" horiz-adv-x="1890" d="M20 479v178h154q-2 16 -2 47t2 48h-143v178h172q68 238 281.5 371t539.5 133q307 0 507 -114t265 -312l-389 -23q-94 111 -366.5 111t-389.5 -166h578v-178h-643q-2 -16 -2 -47q0 -33 2 -48h633v-178h-568q125 -166 408 -166q299 0 389 154l385 -14q-55 -229 -255 -353.5 t-529 -124.5q-340 0 -558.5 132.5t-287.5 371.5h-183z" />
<glyph unicode="&#x2122;" horiz-adv-x="2072" d="M39 1272v162h756v-162h-277v-594h-203v594h-276zM922 678v756h354l166 -633l164 633h352v-756h-199v631l-182 -631h-277l-180 620v-620h-198z" />
<glyph unicode="&#x25fc;" horiz-adv-x="1075" d="M0 0v1075h1075v-1075h-1075z" />
</font>
</defs>
</svg>
